Coordinates
version=1
nRows=36
nColumns=30
inDegrees=yes

Units are S.I. units (second, meters, Newtons, ...)
Angles are in degrees.

endheader
time	floatyaw	floatroll	floatpitch	floatx	floaty	floatz	pro_sup_l	deviation_l	flexion_l	cmc_flexion_l	cmc_abduction_l	mp_flexion_l	ip_flexion_l	2mcp_flexion_l	2mcp_abduction_l	2pm_flexion_l	2md_flexion_l	3mcp_flexion_l	3mcp_abduction_l	3pm_flexion_l	3md_flexion_l	4mcp_flexion_l	4mcp_abduction_l	4pm_flexion_l	4md_flexion_l	5mcp_flexion_l	5mcp_abduction_l	5pm_flexion_l	5md_flexion_l
0.005000	-160.147433	-5.066637	-73.570646	-0.064745	-0.133169	-0.117604	68.060096	2.084296	-0.533832	18.351925	19.742651	-30.234323	-51.766847	36.716364	15.939349	57.374075	54.397136	48.788301	6.891983	58.628874	46.318740	48.985735	-7.010670	63.284107	58.520808	40.461818	-15.063220	85.466010	64.094175
0.015000	-160.147433	-5.066637	-73.570646	-0.064815	-0.130080	-0.117782	66.589259	1.476899	-1.178067	18.118078	19.773923	-30.316874	-51.960122	37.527638	16.308803	56.789466	56.292309	49.522919	6.903506	58.467732	46.491043	50.196200	-7.067490	62.587898	59.213775	41.185464	-15.452555	85.208012	64.911777
0.025000	-160.147433	-5.066637	-73.570646	-0.064911	-0.126606	-0.118011	65.328947	0.943449	-1.837701	17.811374	19.705510	-30.446476	-52.247959	38.482443	16.674727	56.063004	58.804482	50.260069	6.903366	58.205665	46.593590	51.373915	-7.129615	61.693980	59.965027	41.760521	-15.850519	84.631561	65.944874
0.035000	-160.147433	-5.066637	-73.570646	-0.065066	-0.123246	-0.118190	64.251067	0.467926	-2.361256	17.444515	19.586675	-30.575616	-52.570944	39.540142	16.997622	55.225479	61.810404	50.961872	6.887027	57.811014	46.627764	52.446300	-7.202248	60.657373	60.767359	42.244647	-16.187164	83.875643	67.061612
0.045000	-160.147433	-5.066637	-73.570646	-0.065274	-0.120496	-0.118236	63.313766	0.049956	-2.636168	17.090467	19.405600	-30.657733	-52.848750	40.583855	17.249528	54.365695	64.962219	51.550029	6.853953	57.310355	46.589229	53.306165	-7.283320	59.633467	61.568057	42.666263	-16.417062	83.140913	68.073839
0.055000	-160.147433	-5.066637	-73.570646	-0.065479	-0.118691	-0.118121	62.472300	-0.296809	-2.628948	16.843654	19.109814	-30.657600	-53.003905	41.448538	17.420845	53.587450	67.801249	51.927248	6.808214	56.770295	46.482518	53.836507	-7.364377	58.814071	62.285544	42.997197	-16.529739	82.613807	68.817504
0.065000	-160.147433	-5.066637	-73.570646	-0.065594	-0.117904	-0.117872	61.690092	-0.555057	-2.383712	16.763317	18.649135	-30.552257	-52.978291	41.972876	17.518580	52.959981	69.922035	52.006638	6.756897	56.264327	46.330146	53.942407	-7.433911	58.344320	62.842579	43.150133	-16.545045	82.398475	69.221852
0.075000	-160.147433	-5.066637	-73.570646	-0.065535	-0.117953	-0.117552	60.949276	-0.716414	-1.988582	16.838570	18.015317	-30.330672	-52.744876	42.056515	17.559794	52.493400	71.113493	51.743048	6.707521	55.846151	46.171119	53.584311	-7.481971	58.266482	63.197137	43.016790	-16.498597	82.490016	69.327515
0.085000	-160.147433	-5.066637	-73.570646	-0.065264	-0.118505	-0.117233	60.257609	-0.788066	-1.534488	16.998309	17.254676	-29.999280	-52.316500	41.696682	17.564412	52.150691	71.417345	51.156514	6.665680	55.541252	46.049472	52.801618	-7.503754	58.516138	63.354757	42.531547	-16.425881	82.796059	69.247025
0.095000	-160.147433	-5.066637	-73.570646	-0.064803	-0.119208	-0.116967	59.647671	-0.789292	-1.087133	17.154468	16.447027	-29.589363	-51.745786	40.986296	17.549921	51.881222	71.084946	50.335135	6.633773	55.353860	45.998469	51.712723	-7.500436	58.963280	63.358116	41.720007	-16.351749	83.188217	69.097937
0.105000	-160.147433	-5.066637	-73.570646	-0.064229	-0.119800	-0.116768	59.166048	-0.740848	-0.678577	17.246310	15.664287	-29.154566	-51.109198	40.075251	17.528761	51.650137	70.459840	49.411055	6.611121	55.277865	46.027549	50.485123	-7.477371	59.469633	63.261615	40.699247	-16.287469	83.554315	68.950255
0.115000	-160.147433	-5.066637	-73.570646	-0.063638	-0.120158	-0.116621	58.854623	-0.654791	-0.313555	17.260299	14.932934	-28.753646	-50.479248	39.115260	17.508025	51.448299	69.844182	48.518486	6.595169	55.301495	46.117290	49.285310	-7.441331	59.933348	63.105605	39.630337	-16.233580	83.829045	68.813164
0.125000	-160.147433	-5.066637	-73.570646	-0.063109	-0.120281	-0.116489	58.731209	-0.531028	0.017816	17.221403	14.220645	-28.427468	-49.899962	38.214395	17.490567	51.284209	69.408844	47.753986	6.583009	55.403520	46.224981	48.230747	-7.398568	60.305864	62.904759	38.653802	-16.185278	83.996801	68.658565
0.135000	-160.147433	-5.066637	-73.570646	-0.062677	-0.120245	-0.116335	58.778722	-0.361538	0.327990	17.168372	13.452635	-28.184673	-49.378760	37.417634	17.476555	51.168333	69.178334	47.155623	6.572377	55.547400	46.299954	47.364688	-7.354268	60.582169	62.656277	37.843193	-16.137368	84.074745	68.458988
0.145000	-160.147433	-5.066637	-73.570646	-0.062335	-0.120148	-0.116136	58.948397	-0.138357	0.624920	17.129893	12.547774	-28.003280	-48.895583	36.713839	17.464722	51.100177	69.078713	46.704355	6.561806	55.682756	46.302852	46.661057	-7.312779	60.777699	62.359162	37.194435	-16.087082	84.090326	68.213701
0.155000	-160.147433	-5.066637	-73.570646	-0.062041	-0.120071	-0.115887	59.175332	0.139497	0.910570	17.113439	11.457068	-27.845090	-48.420322	36.059040	17.453138	51.064660	69.006876	46.341192	6.550250	55.758168	46.219328	46.052033	-7.277689	60.908506	62.027345	36.647306	-16.034523	84.065560	67.948686
0.165000	-160.147433	-5.066637	-73.570646	-0.061747	-0.120060	-0.115599	59.398770	0.462865	1.182513	17.109352	10.188560	-27.674478	-47.929128	35.404490	17.439733	51.038848	68.881557	45.992439	6.536818	55.739659	46.061222	45.463992	-7.251372	60.984457	61.686242	36.123504	-15.981627	84.013000	67.695587
0.175000	-160.147433	-5.066637	-73.570646	-0.061418	-0.120123	-0.115297	59.578364	0.813241	1.435625	17.103800	8.809325	-27.473113	-47.414681	34.720784	17.422939	51.003820	68.662200	45.596713	6.520947	55.623741	45.856543	44.848223	-7.234334	61.013264	61.358227	35.564200	-15.930828	83.939858	67.468834
0.185000	-160.147433	-5.066637	-73.570646	-0.061047	-0.120245	-0.115006	59.700688	1.166485	1.663129	17.090454	7.423733	-27.244941	-46.888861	34.011568	17.402409	50.952985	68.345493	45.126493	6.502826	55.436880	45.636124	44.196941	-7.224973	61.005956	61.051200	34.953536	-15.884141	83.852428	67.258893
0.195000	-160.147433	-5.066637	-73.570646	-0.060651	-0.120399	-0.114747	59.774936	1.497965	1.858117	17.073884	6.136356	-27.010422	-46.377906	33.312463	17.379407	50.891067	67.954311	44.596018	6.483558	55.221714	45.424102	43.540419	-7.220120	60.976868	60.758941	34.320430	-15.842770	83.755989	67.044828
0.205000	-160.147433	-5.066637	-73.570646	-0.060261	-0.120557	-0.114532	59.821133	1.787365	2.016213	17.064726	5.015487	-26.794335	-45.912174	32.675857	17.356494	50.825400	67.526133	44.051565	6.464801	55.017832	45.234042	42.927908	-7.216279	60.938745	60.470442	33.719600	-15.807131	83.652117	66.813945
0.215000	-160.147433	-5.066637	-73.570646	-0.059905	-0.120699	-0.114364	59.856988	2.021761	2.138101	17.071687	4.073983	-26.614086	-45.514942	32.148927	17.336580	50.756972	67.101835	43.549091	6.448028	54.846795	45.068852	42.402294	-7.211068	60.898072	60.179716	33.202322	-15.777245	83.538391	66.572539
0.225000	-160.147433	-5.066637	-73.570646	-0.059600	-0.120814	-0.114238	59.889726	2.196564	2.229965	17.095824	3.275521	-26.473668	-45.194820	31.755524	17.321861	50.678128	66.715532	43.131216	6.433869	54.707339	44.922891	41.981394	-7.204132	60.854429	59.889983	32.792370	-15.753256	83.412232	66.340735
0.235000	-160.147433	-5.066637	-73.570646	-0.059346	-0.120902	-0.114145	59.915864	2.314822	2.301288	17.129657	2.560904	-26.364350	-44.944120	31.489665	17.313141	50.578084	66.387077	42.814340	6.421925	54.581147	44.785976	41.654150	-7.197050	60.803635	59.611482	32.478575	-15.735615	83.275506	66.137103
0.245000	-160.147433	-5.066637	-73.570646	-0.059129	-0.120968	-0.114076	59.927103	2.385547	2.361253	17.160541	1.879457	-26.270123	-44.742927	31.321568	17.309773	50.451356	66.118731	42.589059	6.411138	54.445295	44.648675	41.390765	-7.192300	60.742013	59.355701	32.225197	-15.724714	83.135577	65.965459
0.255000	-160.147433	-5.066637	-73.570646	-0.058934	-0.121019	-0.114025	59.917594	2.421684	2.415727	17.175899	1.209742	-26.175002	-44.567082	31.211140	17.310060	50.302759	65.897155	42.429777	6.400478	54.285189	44.506753	41.158708	-7.191938	60.669361	59.129697	31.992024	-15.720271	83.001633	65.813346
0.265000	-160.147433	-5.066637	-73.570646	-0.058748	-0.121066	-0.113987	59.888458	2.438218	2.466071	17.167740	0.561238	-26.069320	-44.397264	31.121425	17.311805	50.146518	65.700475	42.306931	6.389553	54.101926	44.362334	40.935500	-7.196718	60.589822	58.932996	31.752748	-15.720982	82.878798	65.662273
0.275000	-160.147433	-5.066637	-73.570646	-0.058567	-0.121114	-0.113957	59.848067	2.450561	2.509980	17.134918	-0.039997	-25.952592	-44.225427	31.026408	17.312827	50.001889	65.507083	42.196624	6.378799	53.911238	44.221145	40.713251	-7.205983	60.511154	58.757565	31.503102	-15.724678	82.764270	65.501035
0.285000	-160.147433	-5.066637	-73.570646	-0.058391	-0.121172	-0.113933	59.808814	2.472805	2.543769	17.082756	-0.570125	-25.831714	-44.055140	30.912019	17.311388	49.888452	65.301615	42.085101	6.369166	53.735846	44.087946	40.495354	-7.218134	60.442940	58.590301	31.256716	-15.728870	82.648710	65.332256
0.295000	-160.147433	-5.066637	-73.570646	-0.058227	-0.121239	-0.113909	59.782154	2.515394	2.565189	17.020545	-1.018873	-25.715567	-43.895353	30.773173	17.306514	49.821484	65.076869	41.968116	6.361513	53.595805	43.963557	40.289223	-7.231221	60.393814	58.417724	31.032871	-15.731360	82.522656	65.168907
0.305000	-160.147433	-5.066637	-73.570646	-0.058078	-0.121315	-0.113882	59.774113	2.582648	2.575615	16.958028	-1.389419	-25.609487	-43.751694	30.610612	17.298150	49.806744	64.834174	41.847122	6.356064	53.501204	43.845720	40.099540	-7.243372	60.368158	58.232239	30.843677	-15.730642	82.383848	65.025166
0.315000	-160.147433	-5.066637	-73.570646	-0.057948	-0.121397	-0.113845	59.783436	2.671705	2.580513	16.902349	-1.692060	-25.513222	-43.621600	30.429098	17.287092	49.836618	64.584010	41.724855	6.352187	53.449801	43.733042	39.925052	-7.253048	60.363846	58.037409	30.687520	-15.726055	82.240164	64.908451
0.325000	-160.147433	-5.066637	-73.570646	-0.057834	-0.121478	-0.113798	59.803491	2.774293	2.587699	16.856693	-1.939379	-25.423134	-43.496507	30.236129	17.274677	49.891494	64.345002	41.602342	6.348575	53.429856	43.628559	39.759749	-7.259227	60.372857	57.848337	30.551424	-15.717752	82.105784	64.816567
0.335000	-160.147433	-5.066637	-73.570646	-0.057734	-0.121556	-0.113738	59.826730	2.880840	2.603922	16.820905	-2.145208	-25.336018	-43.368520	30.040223	17.262303	49.947517	64.138501	41.478422	6.343781	53.426085	43.539544	39.597096	-7.261550	60.384903	57.685417	30.419528	-15.706510	81.993227	64.739672
0.345000	-160.147433	-5.066637	-73.570646	-0.057642	-0.121628	-0.113668	59.848757	2.984467	2.631334	16.793325	-2.323959	-25.251294	-43.235955	29.849158	17.250964	49.986548	63.979939	41.351658	6.336877	53.425266	43.473235	39.434569	-7.260352	60.391800	57.564395	30.281693	-15.693406	81.906636	64.664517
0.355000	-160.147433	-5.066637	-73.570646	-0.057556	-0.121696	-0.113594	59.869534	3.082501	2.665831	16.772509	-2.487706	-25.170448	-43.104063	29.669057	17.241010	50.001850	63.872539	41.223117	6.327928	53.418713	43.431873	39.275780	-7.256529	60.389453	57.488743	30.137430	-15.679496	81.839734	64.579110
